<?xml version="1.0" encoding="UTF-8"?>
<svg xmlns="http://www.w3.org/2000/svg" viewBox="0 0 340 126.2021" fill="currentColor" role="img" aria-label="Adventures of PATCH">
  <title>Adventures of PATCH - Cliff-drop stacked lockup</title>
  <metadata>
    <aop:brandAsset xmlns:aop="https://harleybartles.com/ns/adventures-of-patch-brand-asset/v1">
      <aop:canonicalName>Adventures of PATCH</aop:canonicalName>
      <aop:treatment>Cliff-drop stacked lockup</aop:treatment>
      <aop:patchTypeface>ITC Serif Gothic Std Black, Version 2.000 Build 1000</aop:patchTypeface>
      <aop:straplineTypeface>ITC Serif Gothic Std ExtraBold, Version 2.000 Build 1000</aop:straplineTypeface>
      <aop:designers>Herb Lubalin and Antonio DiSpigna</aop:designers>
      <aop:manufacturer>Monotype ITC Inc.</aop:manufacturer>
      <aop:vendor>MyFonts, a Monotype affiliated website</aop:vendor>
      <aop:licenseBasis>Locally licensed font software purchased from MyFonts under the Monotype Font Software For Desktop End User License Agreement v250903; verified from the locally retained order archives on 2026-09-03.</aop:licenseBasis>
      <aop:outlineStatus>Static one-piece compound outline only. No font binary, subset, encoded font data, webfont, local-font link, glyph identifier, or individually addressable letter path is retained.</aop:outlineStatus>
      <aop:geometry>The right edge of T is the cliff; the final s moves vertically only; its top resolves to the upper edge of the preceding e crossbar and its bottom resolves to the T cap; of terminates on the sharp right edge of C; H remains free.</aop:geometry>
      <aop:created>2026-09-03</aop:created>
    </aop:brandAsset>
  </metadata>
  <path d="M14.0074 0.6843000000000004C14.3482 1.0676999999999985 14.6038 1.4511000000000003 14.6038 2.0900999999999996C14.6038 2.6012999999999984 14.5186 3.1125000000000007 13.4536 5.9666999999999994L5.104 28.1613C4.5502 29.6523 4.252 30.1209 3.4000000000000004 31.0155H11.068C10.7272 30.6321 10.471599999999999 30.2487 10.471599999999999 29.6097C10.471599999999999 28.7577 10.8976 27.607499999999998 12.0904 24.5403H23.7202L24.8704 27.564899999999998C25.0408 28.0335 25.339 29.098499999999998 25.339 29.6097C25.339 30.1635 25.0834 30.6321 24.7426 31.0155H32.538399999999996C31.8142 30.2061 31.3882 29.5245 30.9196 28.331699999999998L20.1844 0.6843000000000004H14.0074ZM17.7136 7.2021000000000015H17.7988L22.0162 19.5135H13.9222L17.7136 7.2021000000000015ZM50.6008 0.6843000000000004V10.993500000000001C48.769000000000005 10.1415 47.491 9.459900000000001 44.9776 9.459900000000001C38.7154 9.459900000000001 33.5608 13.9755 33.5608 20.5785C33.5608 27.0963 38.6302 31.6971 44.9776 31.6971C48.2578 31.6971 50.430400000000006 30.7599 53.071600000000004 28.8003C54.434799999999996 27.8205 55.372 27.2667 56.650000000000006 27.2667C56.096199999999996 26.712899999999998 55.8832 26.0313 55.8832 25.0515V2.3031000000000006C55.8832 1.4511000000000003 56.479600000000005 1.0250999999999983 56.9482 0.6843000000000004H50.6008ZM38.8432 20.5785C38.8432 16.8723 41.8252 14.401499999999999 45.3184 14.401499999999999C47.3632 14.401499999999999 49.3654 15.2109 50.6008 16.701900000000002V24.4551C49.3654 25.9461 47.3632 26.755499999999998 45.361000000000004 26.755499999999998C41.7826 26.755499999999998 38.8432 24.2847 38.8432 20.5785ZM56.9056 10.1415C58.0558 10.7379 58.4392 12.1863 58.7374 12.867899999999999L66.5332 31.0155H72.0712C71.56 30.5895 71.347 30.2487 71.347 29.6949C71.347 29.4819 71.6026 28.9707 71.773 28.6299L79.3558 12.015899999999998C79.654 11.3769 80.1226 10.6527 80.7616 10.1415H73.1788C73.69 10.6101 73.90299999999999 10.8231 73.90299999999999 11.4621C73.90299999999999 11.973299999999998 73.477 12.910499999999999 73.0936 13.8903L68.7484 24.8811H68.6632L64.318 13.7625C63.977199999999996 12.910499999999999 63.551199999999994 11.973299999999998 63.551199999999994 11.4621C63.551199999999994 10.8231 63.806799999999996 10.524899999999999 64.2754 10.1415H56.9056ZM91.7098 9.459900000000001C85.3624 9.459900000000001 80.8042 14.358899999999998 80.8042 20.5785C80.8042 26.755499999999998 85.3198 31.6971 91.7098 31.6971C93.8398 31.6971 95.96979999999999 31.0155 96.7792 31.0155C97.2478 31.0155 97.5886 31.1007 98.1424 31.484099999999998V24.4551C96.7366 26.1165 94.6918 27.0963 92.2636 27.0963C88.6852 27.0963 86.59779999999999 25.4349 86.08659999999999 22.1547H102.5728C102.27459999999999 21.3453 102.01899999999999 20.450699999999998 101.6782 18.4911C100.91139999999999 14.145900000000001 97.46079999999999 9.459900000000001 91.7098 9.459900000000001ZM86.08659999999999 18.4059C86.896 15.3813 88.4722 14.0607 91.369 14.0607C94.47879999999999 14.0607 95.96979999999999 15.5091 96.7792 18.4059H86.08659999999999ZM114.84159999999999 9.459900000000001C111.60399999999998 9.459900000000001 109.94259999999998 10.8657 108.19599999999998 12.1863C106.74759999999999 13.2939 105.72519999999999 13.8477 104.6176 13.8903C105.12879999999998 14.401499999999999 105.38439999999999 15.0831 105.38439999999999 16.1055V29.3967C105.38439999999999 30.2487 104.78799999999998 30.674699999999998 104.31939999999999 31.0155H111.73179999999999C110.92239999999998 30.4617 110.6668 29.9931 110.6668 29.3115V16.3185C112.0726 15.253499999999999 113.30799999999999 14.401499999999999 114.84159999999999 14.401499999999999C117.82359999999998 14.401499999999999 119.35719999999999 16.2759 119.35719999999999 18.6189V29.3967C119.35719999999999 30.2487 118.76079999999999 30.674699999999998 118.2922 31.0155H125.70459999999999C124.89519999999999 30.4617 124.63959999999999 30.0357 124.63959999999999 29.3541V19.811700000000002C124.63959999999999 14.316299999999998 120.84819999999999 9.459900000000001 114.84159999999999 9.459900000000001ZM126.42879999999998 14.7423H129.70899999999997V29.3967C129.70899999999997 30.2487 129.1126 30.674699999999998 128.64399999999998 31.0155H136.0564C135.24699999999999 30.3765 134.99139999999997 30.0783 134.99139999999997 29.3967V14.7423H137.2918C138.05859999999998 14.7423 138.5698 14.997900000000001 138.82539999999997 15.5091V10.1415H134.99139999999997V3.155100000000001L126.42879999999998 14.7423ZM139.8478 10.1415C140.6572 10.7805 140.9128 11.078700000000001 140.9128 11.7603V21.3027C140.9128 26.9259 144.7894 31.6971 150.7108 31.6971C153.352 31.6971 155.1838 30.717299999999998 156.97299999999998 29.2689C158.6344 27.9483 159.6568 27.3519 160.9348 27.2667C160.381 26.712899999999998 160.168 26.0313 160.168 25.0515V11.7603C160.168 10.9083 160.7644 10.482299999999999 161.233 10.1415H153.82059999999998C154.63 10.7805 154.88559999999998 11.078700000000001 154.88559999999998 11.7603V24.8385C153.47979999999998 25.9035 152.24439999999998 26.755499999999998 150.7108 26.755499999999998C147.814 26.755499999999998 146.1952 24.9237 146.1952 22.5807V11.7603C146.1952 10.9083 146.7916 10.482299999999999 147.2602 10.1415H139.8478ZM176.3134 8.863499999999998C175.717 9.545100000000001 174.82240000000002 9.9711 173.6722 10.0563C171.41440000000003 10.226700000000001 169.966 11.6751 169.71040000000002 13.464300000000001H169.6252V10.1415H163.61860000000001C164.3428 10.6527 164.6836 11.078700000000001 164.6836 11.7603V29.3967C164.6836 30.2487 164.08720000000002 30.674699999999998 163.61860000000001 31.0155H171.031C170.22160000000002 30.4617 169.966 30.0357 169.966 29.3541V17.8521C171.07360000000003 15.5943 172.6072 14.997900000000001 174.013 14.997900000000001C174.9076 14.997900000000001 175.7596 15.2109 176.3134 15.636899999999999V8.863499999999998ZM188.79520000000002 9.459900000000001C182.44780000000003 9.459900000000001 177.88960000000003 14.358899999999998 177.88960000000003 20.5785C177.88960000000003 26.755499999999998 182.4052 31.6971 188.79520000000002 31.6971C190.92520000000002 31.6971 193.0552 31.0155 193.86460000000002 31.0155C194.3332 31.0155 194.674 31.1007 195.2278 31.484099999999998V24.4551C193.822 26.1165 191.77720000000002 27.0963 189.34900000000002 27.0963C185.7706 27.0963 183.68320000000003 25.4349 183.17200000000003 22.1547H199.65820000000002C199.36 21.3453 199.10440000000003 20.450699999999998 198.76360000000003 18.4911C197.9968 14.145900000000001 194.54620000000003 9.459900000000001 188.79520000000002 9.459900000000001ZM183.17200000000003 18.4059C183.9814 15.3813 185.5576 14.0607 188.45440000000002 14.0607C191.56420000000003 14.0607 193.0552 15.5091 193.86460000000002 18.4059H183.17200000000003ZM208.43380000000002 18.405900000000003C204.38680000000002 18.405900000000003 201.6604 20.8767 201.6604 24.4125C201.6604 27.0537 202.85320000000002 28.8855 207.19840000000002 30.930300000000003C209.2006 31.8675 210.2656 32.6769 210.2656 33.8697C210.2656 35.3607 209.28580000000002 36.3831 207.02800000000002 36.3831C204.5146 36.3831 202.64020000000002 35.1051 201.1918 33.3585V40.4301C201.61780000000002 40.1319 202.0012 39.9615 202.555 39.9615C203.407 39.9615 205.4944 40.643100000000004 207.6244 40.643100000000004C212.1826 40.643100000000004 215.548 37.9593 215.548 33.6993C215.548 31.143300000000004 214.483 29.1837 210.8194 27.3093C208.4764 26.116500000000002 206.9428 25.5627 206.9428 24.4125C206.9428 23.091900000000003 208.2208 22.6659 209.371 22.6659C211.3732 22.6659 212.82160000000002 23.6457 213.631 25.0089V18.6189C213.33280000000002 18.9171 213.0772 19.087500000000002 212.6938 19.087500000000002C212.09740000000002 19.087500000000002 210.223 18.405900000000003 208.43380000000002 18.405900000000003ZM236.259 9.459900000000001C229.82639999999998 9.459900000000001 224.6718 14.5293 224.6718 20.5785C224.6718 26.8407 230.082 31.6971 236.259 31.6971C242.6916 31.6971 247.84619999999998 26.6277 247.84619999999998 20.5785C247.84619999999998 14.273699999999998 242.39339999999999 9.459900000000001 236.259 9.459900000000001ZM229.9542 20.5785C229.9542 17.1705 232.76579999999998 14.401499999999999 236.2164 14.401499999999999C239.7522 14.401499999999999 242.5638 17.1705 242.5638 20.5785C242.5638 23.9439 239.79479999999998 26.755499999999998 236.259 26.755499999999998C232.7232 26.755499999999998 229.9542 23.9439 229.9542 20.5785ZM261.1374 0.002700000000000813C260.7966 0.4286999999999992 259.98720000000003 0.6843000000000004 258.7944 0.6843000000000004C254.9178 0.6843000000000004 251.85060000000001 3.155100000000001 251.85060000000001 6.9039V10.1415H249.252V15.5091H249.3372C249.8058 14.8275 250.1466 14.7423 251.2968 14.7423H251.85060000000001V29.3967C251.85060000000001 30.2487 251.2542 30.674699999999998 250.78560000000002 31.0155H258.198C257.5164 30.5469 257.133 30.0783 257.133 29.3967V14.7423H259.476C260.2002 14.7423 260.6688 14.997900000000001 260.9244 15.5091H261.0096V10.1415H257.133V7.5855C257.133 6.435300000000002 257.985 5.2851 259.5612 5.2851C260.3706 5.2851 260.7966 5.455500000000001 261.1374 5.455500000000001V0.002700000000000813ZM29.257499999999997 62.7335V80.82849999999999H32.5475C37.717499999999994 80.82849999999999 41.83 77.7735 41.83 71.781C41.83 65.7885 37.717499999999994 62.7335 32.195 62.7335H29.257499999999997ZM2.7025 38.7635C4.5825 40.526 7.050000000000001 41.466 10.222499103546143 41.46600089645386C13.395 41.466 22.912499999999998 38.7635 30.432499999999997 38.7635C51.817499999999995 38.7635 67.21 51.571 67.21 71.54599999999999C67.21 89.64099999999999 52.75749999999999 103.506 34.662499999999994 103.506C32.195 103.506 30.784999999999997 103.271 29.257499999999997 103.1535V116.7835C29.257499999999997 119.01599999999999 29.9625 121.95349999999999 31.959999999999994 124.3035H-4.4822692846224754e-07C1.9975 121.95349999999999 2.7025 119.01599999999999 2.7025 116.7835V38.7635ZM104.80999999999999 67.316 99.5225 93.0485H110.8025L105.27999999999999 67.316H104.80999999999999ZM86.94999999999999 40.6435H118.91L146.52249999999998 116.3135C147.815 119.721 149.3425 122.071 151.575 124.3035H117.73499999999999C118.32249999999999 123.011 118.55749999999999 121.366 118.55749999999999 119.8385C118.55749999999999 117.136 117.61749999999999 115.021 116.79499999999999 112.3185H93.76499999999999C92.4725 114.6685 91.7675 117.4885 91.7675 119.956C91.7675 121.24849999999999 92.11999999999999 122.8935 93.05999999999999 123.716V124.3035H58.98499999999999C62.03999999999999 121.366 63.567499999999995 116.901 65.095 112.67099999999999L88.36 49.5735C88.83 48.1635 89.535 45.813500000000005 89.535 44.4035C89.535 42.5235 88.47749999999999 41.5835 86.94999999999999 40.6435ZM141.58749999999998 40.6435H199.6325V65.3185C197.165 64.02600000000001 193.52249999999998 63.673500000000004 191.29 63.673500000000004H183.8875V116.7835C183.8875 119.01599999999999 184.5925 121.95349999999999 186.58999999999997 124.3035H154.63C156.6275 121.95349999999999 157.33249999999998 119.01599999999999 157.33249999999998 116.7835V63.673500000000004H149.92999999999998C147.6975 63.673500000000004 144.05499999999998 64.02600000000001 141.58749999999998 65.3185V40.6435ZM245.6925 38.7635C249.1 38.7635 251.33249999999998 39.703500000000005 254.27 39.703500000000005C256.26750000000004 39.703500000000005 258.735 39.586 261.08500000000004 38.7635V71.8985C257.325 68.021 252.27249999999998 65.3185 246.6325 65.3185C236.41 65.3185 229.82999999999998 73.30850000000001 229.82999999999998 82.7085C229.82999999999998 92.461 236.99749999999997 99.6285 246.27999999999997 99.6285C251.80249999999998 99.6285 257.20750000000004 97.0435 261.08500000000004 92.3435V126.1835C258.8525 125.596 256.9725 125.2435 254.975 125.2435C250.86249999999998 125.2435 249.33499999999998 126.1835 245.6925 126.1835C221.7225 126.1835 203.27499999999998 106.091 203.27499999999998 82.4735C203.27499999999998 58.856 221.7225 38.7635 245.6925 38.7635ZM268.95750000000004 40.6435H300.9175C298.92 42.993500000000004 298.21500000000003 45.931 298.21500000000003 48.1635V72.48599999999999H310.67V48.1635C310.67 45.931 309.96500000000003 42.993500000000004 307.96750000000003 40.6435H339.9275C337.93 42.993500000000004 337.225 45.931 337.225 48.1635V116.7835C337.225 119.01599999999999 337.93 121.95349999999999 339.9275 124.3035H307.96750000000003C309.96500000000003 121.95349999999999 310.67 119.01599999999999 310.67 116.7835V92.696H298.21500000000003V116.7835C298.21500000000003 119.01599999999999 298.92 121.95349999999999 300.9175 124.3035H268.95750000000004C270.955 121.95349999999999 271.66 119.01599999999999 271.66 116.7835V48.1635C271.66 45.931 270.955 42.993500000000004 268.95750000000004 40.6435Z"/>
</svg>
